<?xml version="1.0" encoding="UTF-8" standalone="no"?>
<!-- Created with Inkscape (http://www.inkscape.org/) -->
<!-- SPDX-License-Identifier: BSD-3-Clause -->
<!-- Copyright(C) 2025 Marvell International Ltd. -->
<svg
   xmlns:dc="http://purl.org/dc/elements/1.1/"
   xmlns:cc="http://creativecommons.org/ns#"
   xmlns:rdf="http://www.w3.org/1999/02/22-rdf-syntax-ns#"
   xmlns:svg="http://www.w3.org/2000/svg"
   xmlns="http://www.w3.org/2000/svg"
   id="svg152"
   version="1.1"
   overflow="hidden"
   xml:space="preserve"
   height="1483"
   width="3471"><metadata
     id="metadata158"><rdf:RDF><cc:Work
         rdf:about=""><dc:format>image/svg+xml</dc:format><dc:type
           rdf:resource="http://purl.org/dc/dcmitype/StillImage" /><dc:title></dc:title></cc:Work></rdf:RDF></metadata><defs
     id="defs156" /><g
     id="g150"
     transform="translate(-637 -331)"><path
       id="path2"
       fill-rule="evenodd"
       fill="#00B5E2"
       stroke-miterlimit="8"
       stroke-width="6.875"
       stroke="#212322"
       d="M640.5 543.5C640.5 460.657 788.917 393.5 972 393.5 1155.08 393.5 1303.5 460.657 1303.5 543.5 1303.5 626.343 1155.08 693.5 972 693.5 788.917 693.5 640.5 626.343 640.5 543.5Z" /><text
       id="text4"
       transform="matrix(1 0 0 1 831.669 574)"
       font-size="83"
       font-weight="400"
       font-family="Arial,Arial_MSFontService,sans-serif"
       fill="#FFFFFF">Node</text>
<text
       id="text6"
       transform="matrix(1 0 0 1 1028.75 574)"
       font-size="83"
       font-weight="400"
       font-family="Arial,Arial_MSFontService,sans-serif"
       fill="#FFFFFF">-</text>
<text
       id="text8"
       transform="matrix(1 0 0 1 1056.25 574)"
       font-size="83"
       font-weight="400"
       font-family="Arial,Arial_MSFontService,sans-serif"
       fill="#FFFFFF">A</text>
<path
       id="path10"
       fill-rule="evenodd"
       fill="#00B5E2"
       stroke-miterlimit="8"
       stroke-width="6.875"
       stroke="#212322"
       d="M640.5 1660.5C640.5 1577.66 788.917 1510.5 972 1510.5 1155.08 1510.5 1303.5 1577.66 1303.5 1660.5 1303.5 1743.34 1155.08 1810.5 972 1810.5 788.917 1810.5 640.5 1743.34 640.5 1660.5Z" /><text
       id="text12"
       transform="matrix(1 0 0 1 831.669 1691)"
       font-size="83"
       font-weight="400"
       font-family="Arial,Arial_MSFontService,sans-serif"
       fill="#FFFFFF">Node</text>
<text
       id="text14"
       transform="matrix(1 0 0 1 1028.75 1691)"
       font-size="83"
       font-weight="400"
       font-family="Arial,Arial_MSFontService,sans-serif"
       fill="#FFFFFF">-</text>
<text
       id="text16"
       transform="matrix(1 0 0 1 1056.25 1691)"
       font-size="83"
       font-weight="400"
       font-family="Arial,Arial_MSFontService,sans-serif"
       fill="#FFFFFF">B</text>
<path
       id="path18"
       fill-rule="evenodd"
       fill="#00B050"
       stroke-miterlimit="8"
       stroke-width="6.875"
       stroke="#212322"
       d="M1303.5 1132.5C1303.5 1049.66 1452.14 982.5 1635.5 982.5 1818.86 982.5 1967.5 1049.66 1967.5 1132.5 1967.5 1215.34 1818.86 1282.5 1635.5 1282.5 1452.14 1282.5 1303.5 1215.34 1303.5 1132.5Z" /><text
       id="text20"
       transform="matrix(1 0 0 1 1455.56 1159)"
       font-size="73"
       font-weight="400"
       font-family="Arial,Arial_MSFontService,sans-serif"
       fill="#FFFFFF">Feature </text>
<text
       id="text22"
       transform="matrix(1 0 0 1 1728.84 1159)"
       font-size="73"
       font-weight="400"
       font-family="Arial,Arial_MSFontService,sans-serif"
       fill="#FFFFFF">-</text>
<text
       id="text24"
       transform="matrix(1 0 0 1 1774.1 1159)"
       font-size="73"
       font-weight="400"
       font-family="Arial,Arial_MSFontService,sans-serif"
       fill="#FFFFFF">1</text>
<path
       id="path26"
       fill="#63666A"
       d="M974.937 693.5 974.938 1487.24 968.063 1487.24 968.062 693.5ZM985.25 1482.66 971.5 1510.16 957.75 1482.66Z" /><path
       id="path28"
       fill="#003967"
       d="M972.869 690.347 998.093 701.303 995.354 707.609 970.13 696.653ZM1017.01 709.52 1042.23 720.476 1039.49 726.782 1014.27 715.826ZM1061.15 728.693 1086.37 739.649 1083.64 745.955 1058.41 734.999ZM1105.29 747.866 1130.52 758.822 1127.78 765.127 1102.55 754.172ZM1149.43 767.039 1174.66 777.995 1171.92 784.3 1146.69 773.344ZM1193.57 786.211 1218.8 797.167 1216.06 803.473 1190.83 792.517ZM1237.71 805.384 1262.94 816.34 1260.2 822.646 1234.98 811.69ZM1281.86 824.557 1307.08 835.513 1304.34 841.819 1279.12 830.863ZM1326 843.73 1351.22 854.686 1348.48 860.992 1323.26 850.036ZM1370.14 862.903 1395.36 873.859 1392.62 880.165 1367.4 869.209ZM1414.28 882.076 1439.5 893.032 1436.76 899.338 1411.54 888.382ZM1458.42 901.249 1483.64 912.205 1480.9 918.511 1455.68 907.555ZM1502.56 920.422 1527.78 931.378 1525.04 937.684 1499.82 926.728ZM1546.7 939.595 1571.92 950.551 1569.18 956.857 1543.96 945.901ZM1590.84 958.768 1615.56 969.504 1612.82 975.81 1588.1 965.074ZM1615.46 958.219 1635.21 981.786 1604.51 983.442Z" /><path
       id="path30"
       transform="matrix(-1 0 0 1 1400.55 1238.5)"
       fill="#003967"
       d="M1.84062-2.90319 25.0662 11.8217 21.3849 17.6281-1.84062 2.90319ZM42.4853 22.8654 65.7109 37.5903 62.0297 43.3967 38.8041 28.6718ZM83.1301 48.634 106.356 63.359 102.674 69.1653 79.4488 54.4404ZM123.775 74.4026 147 89.1276 143.319 94.934 120.094 80.209ZM164.42 100.171 187.645 114.896 183.964 120.703 160.738 105.978ZM205.064 125.94 228.29 140.665 224.609 146.471 201.383 131.746ZM245.709 151.708 268.935 166.433 265.253 172.24 242.028 157.515ZM286.354 177.477 309.579 192.202 305.898 198.008 282.672 183.283ZM326.998 203.246 350.224 217.971 346.543 223.777 323.317 209.052ZM367.643 229.014 390.869 243.739 387.188 249.546 363.962 234.821ZM408.288 254.783 411.537 256.843 407.856 262.649 404.607 260.589ZM413.188 245.68 429.052 272.017 398.464 268.905Z" /><text
       id="text32"
       transform="matrix(-1.83697e-16 -1 1 -1.83697e-16 961.015 1340)"
       font-size="64"
       font-weight="400"
       font-family="Arial,Arial_MSFontService,sans-serif"
       fill="#212322">Static Packet</text>
<text
       id="text34"
       transform="matrix(-1.83697e-16 -1 1 -1.83697e-16 961.015 945)"
       font-size="64"
       font-weight="400"
       font-family="Arial,Arial_MSFontService,sans-serif"
       fill="#212322">Path</text>
<text
       id="text36"
       transform="matrix(-1.83697e-16 -1 1 -1.83697e-16 1040.01 1221)"
       font-size="64"
       font-weight="400"
       font-family="Arial,Arial_MSFontService,sans-serif"
       fill="#212322">edge == 0</text>
<text
       id="text38"
       transform="matrix(0.916122 0.4009 -0.4009 0.916122 1100.07 807)"
       font-size="64"
       font-weight="400"
       font-family="Arial,Arial_MSFontService,sans-serif"
       fill="#212322">edge == 1</text>
<path
       id="path40"
       fill-rule="evenodd"
       fill="#A6A6A6"
       stroke-miterlimit="8"
       stroke-width="6.875"
       stroke="#212322"
       d="M3429.5 1088C3429.5 1004.88 3577.92 937.5 3761 937.5 3944.08 937.5 4092.5 1004.88 4092.5 1088 4092.5 1171.12 3944.08 1238.5 3761 1238.5 3577.92 1238.5 3429.5 1171.12 3429.5 1088Z" /><text
       id="text42"
       transform="matrix(1 0 0 1 3583.93 1068)"
       font-size="83"
       font-weight="400"
       font-family="Arial,Arial_MSFontService,sans-serif"
       fill="#FFFFFF">Custom </text>
<text
       id="text44"
       transform="matrix(1 0 0 1 3891.02 1068)"
       font-size="83"
       font-weight="400"
       font-family="Arial,Arial_MSFontService,sans-serif"
       fill="#FFFFFF">–</text>
<text
       id="text46"
       transform="matrix(1 0 0 1 3618.31 1167)"
       font-size="83"
       font-weight="400"
       font-family="Arial,Arial_MSFontService,sans-serif"
       fill="#FFFFFF">Feature</text>
<path
       id="path48"
       fill="#003967"
       d="M971.811 690.076 999.198 692.567 998.576 699.413 971.189 696.923ZM1019.74 694.434 1047.13 696.924 1046.5 703.771 1019.12 701.281ZM1067.67 698.792 1095.05 701.282 1094.43 708.129 1067.04 705.639ZM1115.59 703.15 1142.98 705.64 1142.36 712.487 1114.97 709.996ZM1163.52 707.507 1190.91 709.997 1190.28 716.844 1162.9 714.354ZM1211.45 711.865 1238.83 714.355 1238.21 721.202 1210.83 718.712ZM1259.38 716.223 1286.76 718.713 1286.14 725.56 1258.75 723.07ZM1307.3 720.581 1334.69 723.071 1334.07 729.917 1306.68 727.427ZM1355.23 724.938 1382.62 727.428 1381.99 734.275 1354.61 731.785ZM1403.16 729.296 1430.54 731.786 1429.92 738.633 1402.53 736.143ZM1451.08 733.654 1478.47 736.144 1477.85 742.991 1450.46 740.5ZM1499.01 738.011 1526.4 740.502 1525.78 747.348 1498.39 744.858ZM1546.94 742.369 1574.33 744.859 1573.7 751.706 1546.32 749.216ZM1594.87 746.727 1622.25 749.217 1621.63 756.064 1594.24 753.574ZM1642.79 751.085 1670.18 753.575 1669.56 760.421 1642.17 757.931ZM1690.72 755.442 1718.11 757.932 1717.49 764.779 1690.1 762.289ZM1738.65 759.8 1766.04 762.29 1765.41 769.137 1738.03 766.647ZM1786.58 764.158 1813.96 766.648 1813.34 773.495 1785.95 771.004ZM1834.5 768.515 1861.89 771.006 1861.27 777.852 1833.88 775.362ZM1882.43 772.873 1909.82 775.363 1909.19 782.21 1881.81 779.72ZM1930.36 777.231 1957.74 779.721 1957.12 786.568 1929.73 784.078ZM1978.28 781.589 2005.67 784.079 2005.05 790.925 1977.66 788.435ZM2026.21 785.946 2053.6 788.436 2052.98 795.283 2025.59 792.793ZM2074.14 790.304 2101.53 792.794 2100.9 799.641 2073.52 797.151ZM2122.07 794.662 2149.45 797.152 2148.83 803.999 2121.44 801.509ZM2169.99 799.019 2197.38 801.51 2196.76 808.356 2169.37 805.866ZM2217.92 803.377 2245.31 805.867 2244.69 812.714 2217.3 810.224ZM2265.85 807.735 2293.24 810.225 2292.61 817.072 2265.23 814.582ZM2313.78 812.093 2341.16 814.583 2340.54 821.43 2313.15 818.939ZM2361.7 816.45 2389.09 818.94 2388.47 825.787 2361.08 823.297ZM2409.63 820.808 2437.02 823.298 2436.4 830.145 2409.01 827.655ZM2457.56 825.166 2484.95 827.656 2484.32 834.503 2456.94 832.013ZM2505.49 829.523 2532.87 832.014 2532.25 838.86 2504.86 836.37ZM2553.41 833.881 2580.8 836.371 2580.18 843.218 2552.79 840.728ZM2601.34 838.239 2628.73 840.729 2628.1 847.576 2600.72 845.086ZM2649.27 842.597 2676.65 845.087 2676.03 851.934 2648.64 849.443ZM2697.19 846.954 2724.58 849.445 2723.96 856.291 2696.57 853.801ZM2745.12 851.312 2772.51 853.802 2771.89 860.649 2744.5 858.159ZM2793.05 855.67 2820.44 858.16 2819.81 865.007 2792.43 862.517ZM2840.98 860.028 2868.36 862.518 2867.74 869.364 2840.35 866.874ZM2888.9 864.385 2916.29 866.875 2915.67 873.722 2888.28 871.232ZM2936.83 868.743 2964.22 871.233 2963.59 878.08 2936.21 875.59ZM2984.76 873.101 3012.14 875.591 3011.52 882.438 2984.14 879.947ZM3032.68 877.458 3060.07 879.949 3059.45 886.795 3032.06 884.305ZM3080.61 881.816 3108 884.306 3107.38 891.153 3079.99 888.663ZM3128.54 886.174 3155.93 888.664 3155.3 895.511 3127.92 893.021ZM3176.47 890.532 3203.85 893.022 3203.23 899.869 3175.84 897.378ZM3224.39 894.889 3251.78 897.379 3251.16 904.226 3223.77 901.736ZM3272.32 899.247 3299.71 901.737 3299.09 908.584 3271.7 906.094ZM3320.25 903.605 3347.64 906.095 3347.01 912.942 3319.63 910.452ZM3368.18 907.963 3395.56 910.453 3394.94 917.299 3367.55 914.809ZM3416.1 912.32 3443.49 914.81 3442.87 921.657 3415.48 919.167ZM3464.03 916.678 3491.42 919.168 3490.8 926.015 3463.41 923.525ZM3511.96 921.036 3539.34 923.526 3538.72 930.373 3511.34 927.882ZM3559.89 925.393 3587.27 927.884 3586.65 934.73 3559.26 932.24ZM3607.81 929.751 3630.27 931.793 3629.65 938.64 3607.19 936.598ZM3626.64 921.108 3652.78 937.292 3624.15 948.495Z" /><text
       id="text50"
       transform="matrix(0.993978 0.109578 -0.109578 0.993978 1324.46 704)"
       font-size="64"
       font-weight="400"
       font-family="Arial,Arial_MSFontService,sans-serif"
       fill="#212322">edge == 3</text>
<path
       id="path52"
       fill-rule="evenodd"
       fill="#00B050"
       stroke-miterlimit="8"
       stroke-width="6.875"
       stroke="#212322"
       d="M2326.5 1136.5C2326.5 1053.66 2475.14 986.5 2658.5 986.5 2841.86 986.5 2990.5 1053.66 2990.5 1136.5 2990.5 1219.34 2841.86 1286.5 2658.5 1286.5 2475.14 1286.5 2326.5 1219.34 2326.5 1136.5Z" /><text
       id="text54"
       transform="matrix(1 0 0 1 2478.16 1163)"
       font-size="73"
       font-weight="400"
       font-family="Arial,Arial_MSFontService,sans-serif"
       fill="#FFFFFF">Feature </text>
<text
       id="text56"
       transform="matrix(1 0 0 1 2751.44 1163)"
       font-size="73"
       font-weight="400"
       font-family="Arial,Arial_MSFontService,sans-serif"
       fill="#FFFFFF">-</text>
<text
       id="text58"
       transform="matrix(1 0 0 1 2796.7 1163)"
       font-size="73"
       font-weight="400"
       font-family="Arial,Arial_MSFontService,sans-serif"
       fill="#FFFFFF">2</text>
<path
       id="path60"
       fill="#003967"
       d="M972.27 690.15 999.071 696.312 997.53 703.012 970.73 696.85ZM1019.17 700.934 1045.97 707.096 1044.43 713.796 1017.63 707.634ZM1066.07 711.717 1092.87 717.88 1091.33 724.58 1064.53 718.417ZM1112.97 722.501 1139.77 728.663 1138.23 735.363 1111.43 729.201ZM1159.88 733.285 1186.68 739.447 1185.14 746.147 1158.33 739.985ZM1206.78 744.069 1233.58 750.231 1232.04 756.931 1205.24 750.769ZM1253.68 754.853 1280.48 761.015 1278.94 767.715 1252.14 761.553ZM1300.58 765.636 1327.38 771.799 1325.84 778.499 1299.04 772.336ZM1347.48 776.42 1374.28 782.582 1372.74 789.282 1345.94 783.12ZM1394.38 787.204 1421.18 793.366 1419.64 800.066 1392.84 793.904ZM1441.28 797.988 1468.08 804.15 1466.54 810.85 1439.74 804.688ZM1488.18 808.772 1514.98 814.934 1513.44 821.634 1486.64 815.472ZM1535.08 819.555 1561.89 825.718 1560.34 832.418 1533.54 826.255ZM1581.99 830.339 1608.79 836.501 1607.25 843.201 1580.45 837.039ZM1628.89 841.123 1655.69 847.285 1654.15 853.985 1627.35 847.823ZM1675.79 851.907 1702.59 858.069 1701.05 864.769 1674.25 858.607ZM1722.69 862.691 1749.49 868.853 1747.95 875.553 1721.15 869.391ZM1769.59 873.474 1796.39 879.637 1794.85 886.337 1768.05 880.175ZM1816.49 884.258 1843.29 890.42 1841.75 897.121 1814.95 890.958ZM1863.39 895.042 1890.19 901.204 1888.65 907.904 1861.85 901.742ZM1910.29 905.826 1937.1 911.988 1935.55 918.688 1908.75 912.526ZM1957.2 916.61 1984 922.772 1982.46 929.472 1955.66 923.31ZM2004.1 927.393 2030.9 933.556 2029.36 940.256 2002.56 934.094ZM2051 938.177 2077.8 944.339 2076.26 951.04 2049.46 944.877ZM2097.9 948.961 2124.7 955.123 2123.16 961.823 2096.36 955.661ZM2144.8 959.745 2171.6 965.907 2170.06 972.607 2143.26 966.445ZM2191.7 970.529 2218.5 976.691 2216.96 983.391 2190.16 977.229ZM2238.6 981.312 2265.4 987.475 2263.86 994.175 2237.06 988.013ZM2285.5 992.096 2312.31 998.258 2310.76 1004.96 2283.96 998.796ZM2332.41 1002.88 2359.21 1009.04 2357.67 1015.74 2330.87 1009.58ZM2379.31 1013.66 2406.06 1019.81 2404.52 1026.52 2377.77 1020.36ZM2403.91 1008.74 2427.62 1028.3 2397.74 1035.54Z" /><path
       id="path62"
       transform="matrix(-1 0 0 1 2658.15 1286.5)"
       fill="#003967"
       d="M0.62373-3.38044 27.6672 1.6094 26.4198 8.37028-0.62373 3.38044ZM47.9499 5.35178 74.9934 10.3416 73.7459 17.1025 46.7024 12.1127ZM95.276 14.084 122.32 19.0738 121.072 25.8347 94.0286 20.8449ZM142.602 22.8162 169.646 27.8061 168.398 34.5669 141.355 29.5771ZM189.928 31.5484 216.972 36.5383 215.724 43.2991 188.681 38.3093ZM237.254 40.2806 264.298 45.2705 263.051 52.0314 236.007 47.0415ZM284.581 49.0129 311.624 54.0027 310.377 60.7636 283.333 55.7737ZM331.907 57.7451 358.95 62.7349 357.703 69.4958 330.659 64.506ZM379.233 66.4773 406.276 71.4671 405.029 78.228 377.985 73.2382ZM426.559 75.2095 453.603 80.1994 452.355 86.9602 425.312 81.9704ZM473.885 83.9417 500.929 88.9316 499.681 95.6925 472.638 90.7026ZM521.211 92.674 548.255 97.6638 547.008 104.425 519.964 99.4348ZM568.538 101.406 595.581 106.396 594.334 113.157 567.29 108.167ZM615.864 110.138 642.907 115.128 641.66 121.889 614.616 116.899ZM663.19 118.871 690.233 123.86 688.986 130.621 661.942 125.631ZM710.516 127.603 737.56 132.593 736.312 139.354 709.269 134.364ZM757.842 136.335 784.886 141.325 783.638 148.086 756.595 143.096ZM805.168 145.067 832.212 150.057 830.964 156.818 803.921 151.828ZM852.494 153.799 879.538 158.789 878.29 165.55 851.247 160.56ZM899.82 162.532 926.864 167.522 925.617 174.282 898.573 169.293ZM947.147 171.264 974.19 176.254 972.943 183.015 945.899 178.025ZM994.473 179.996 1021.52 184.986 1020.27 191.747 993.225 186.757ZM1041.8 188.728 1068.84 193.718 1067.59 200.479 1040.55 195.489ZM1089.12 197.461 1116.17 202.45 1114.92 209.211 1087.88 204.221ZM1136.45 206.193 1163.49 211.183 1162.25 217.943 1135.2 212.954ZM1183.78 214.925 1210.82 219.915 1209.57 226.676 1182.53 221.686ZM1231.1 223.657 1258.15 228.647 1256.9 235.408 1229.86 230.418ZM1278.43 232.389 1305.47 237.379 1304.23 244.14 1277.18 239.15ZM1325.76 241.122 1352.8 246.111 1351.55 252.872 1324.51 247.883ZM1373.08 249.854 1400.13 254.844 1398.88 261.605 1371.83 256.615ZM1420.41 258.586 1429.74 260.308 1428.49 267.068 1419.16 265.347ZM1427.1 249.334 1451.65 267.846 1422.11 276.378Z" /><path
       id="path64"
       transform="matrix(-1 0 0 1 3760.78 1238.5)"
       fill="#003967"
       d="M0.422723-3.41141 27.714-0.0296238 26.8685 6.79319-0.422723 3.41141ZM48.1824 2.50672 75.4737 5.8885 74.6283 12.7113 47.337 9.32953ZM95.9422 8.42484 123.233 11.8066 122.388 18.6294 95.0967 15.2477ZM143.702 14.343 170.993 17.7248 170.148 24.5476 142.856 21.1658ZM191.462 20.2611 218.753 23.6429 217.907 30.4657 190.616 27.0839ZM239.221 26.1792 266.513 29.561 265.667 36.3838 238.376 33.002ZM286.981 32.0973 314.272 35.4791 313.427 42.3019 286.136 38.9202ZM334.741 38.0155 362.032 41.3972 361.187 48.2201 333.895 44.8383ZM382.501 43.9336 409.792 47.3154 408.946 54.1382 381.655 50.7564ZM430.26 49.8517 457.552 53.2335 456.706 60.0563 429.415 56.6745ZM478.02 55.7698 505.311 59.1516 504.466 65.9744 477.175 62.5927ZM525.78 61.688 553.071 65.0697 552.226 71.8926 524.934 68.5108ZM573.539 67.6061 600.831 70.9879 599.985 77.8107 572.694 74.4289ZM621.299 73.5242 648.59 76.906 647.745 83.7288 620.454 80.347ZM669.059 79.4423 696.35 82.8241 695.505 89.6469 668.213 86.2652ZM716.819 85.3605 744.11 88.7423 743.264 95.5651 715.973 92.1833ZM764.578 91.2786 791.87 94.6604 791.024 101.483 763.733 98.1014ZM812.338 97.1967 839.629 100.579 838.784 107.401 811.493 104.02ZM860.098 103.115 887.389 106.497 886.544 113.319 859.253 109.938ZM907.858 109.033 935.149 112.415 934.304 119.238 907.012 115.856ZM955.617 114.951 982.909 118.333 982.063 125.156 954.772 121.774ZM1003.38 120.869 1030.67 124.251 1029.82 131.074 1002.53 127.692ZM1051.14 126.787 1078.43 130.169 1077.58 136.992 1050.29 133.61ZM1098.9 132.705 1126.19 136.087 1125.34 142.91 1098.05 139.528ZM1146.66 138.624 1173.95 142.005 1173.1 148.828 1145.81 145.446ZM1194.42 144.542 1221.71 147.924 1220.86 154.746 1193.57 151.365ZM1242.18 150.46 1269.47 153.842 1268.62 160.664 1241.33 157.283ZM1289.94 156.378 1317.23 159.76 1316.38 166.583 1289.09 163.201ZM1337.7 162.296 1364.99 165.678 1364.14 172.501 1336.85 169.119ZM1385.45 168.214 1412.75 171.596 1411.9 178.419 1384.61 175.037ZM1433.21 174.132 1460.51 177.514 1459.66 184.337 1432.37 180.955ZM1480.97 180.051 1508.27 183.432 1507.42 190.255 1480.13 186.873ZM1528.73 185.969 1556.03 189.35 1555.18 196.173 1527.89 192.791ZM1576.49 191.887 1603.78 195.269 1602.94 202.091 1575.65 198.71ZM1624.25 197.805 1651.54 201.187 1650.7 208.009 1623.41 204.628ZM1672.01 203.723 1699.3 207.105 1698.46 213.928 1671.17 210.546ZM1719.77 209.641 1747.06 213.023 1746.22 219.846 1718.93 216.464ZM1767.53 215.559 1794.82 218.941 1793.98 225.764 1766.69 222.382ZM1815.29 221.477 1842.58 224.859 1841.74 231.682 1814.45 228.3ZM1863.05 227.395 1890.34 230.777 1889.5 237.6 1862.21 234.218ZM1910.81 233.314 1938.1 236.695 1937.26 243.518 1909.97 240.136ZM1958.57 239.232 1985.86 242.613 1985.02 249.436 1957.73 246.054ZM2006.33 245.15 2033.62 248.532 2032.78 255.354 2005.49 251.973ZM2054.09 251.068 2081.38 254.45 2080.54 261.273 2053.25 257.891ZM2101.85 256.986 2129.14 260.368 2128.3 267.191 2101 263.809ZM2149.61 262.904 2176.9 266.286 2176.06 273.109 2148.76 269.727ZM2197.37 268.822 2224.66 272.204 2223.82 279.027 2196.52 275.645ZM2245.13 274.74 2272.42 278.122 2271.58 284.945 2244.28 281.563ZM2292.89 280.659 2320.18 284.04 2319.34 290.863 2292.04 287.481ZM2340.65 286.577 2367.94 289.958 2367.09 296.781 2339.8 293.399ZM2388.41 292.495 2415.7 295.877 2414.85 302.699 2387.56 299.318ZM2436.17 298.413 2463.46 301.795 2462.61 308.618 2435.32 305.236ZM2483.93 304.331 2511.22 307.713 2510.37 314.536 2483.08 311.154ZM2531.69 310.249 2531.97 310.284 2531.12 317.107 2530.84 317.072ZM2528.68 299.485 2554.28 316.512 2525.29 326.776Z" /><text
       id="text66"
       transform="matrix(0.974105 0.226098 -0.226098 0.974105 1319.22 820)"
       font-size="64"
       font-weight="400"
       font-family="Arial,Arial_MSFontService,sans-serif"
       fill="#212322">edge == 2</text>
<text
       id="text68"
       transform="matrix(1 0 0 1 1572.39 1639)"
       font-size="64"
       font-weight="700"
       font-style="italic"
       font-family="Arial,Arial_MSFontService,sans-serif"
       fill="#212322">First Feature</text>
<text
       id="text70"
       transform="matrix(1 0 0 1 1505.08 1716)"
       font-size="64"
       font-weight="400"
       font-style="italic"
       font-family="Arial,Arial_MSFontService,sans-serif"
       fill="#212322">For Interface </text>
<text
       id="text72"
       transform="matrix(1 0 0 1 1884.92 1716)"
       font-size="64"
       font-weight="400"
       font-style="italic"
       font-family="Arial,Arial_MSFontService,sans-serif"
       fill="#212322">–</text>
<text
       id="text74"
       transform="matrix(1 0 0 1 1938.2 1716)"
       font-size="64"
       font-weight="400"
       font-style="italic"
       font-family="Arial,Arial_MSFontService,sans-serif"
       fill="#212322">0,1</text>
<path
       id="path76"
       fill="#63666A"
       d="M1764.3 1561.88 1643.18 1304.21 1647.32 1302.26 1768.45 1559.93ZM1634.76 1313.24 1635.5 1282.5 1659.64 1301.54Z" /><path
       id="path78"
       fill="#63666A"
       d="M1967.54 1129.06 1995.04 1129.38 1994.96 1136.26 1967.46 1135.94ZM2015.66 1129.62 2043.16 1129.94 2043.08 1136.82 2015.58 1136.5ZM2063.78 1130.18 2091.28 1130.5 2091.2 1137.38 2063.7 1137.06ZM2111.91 1130.74 2139.4 1131.06 2139.32 1137.94 2111.83 1137.62ZM2160.03 1131.3 2187.53 1131.62 2187.45 1138.49 2159.95 1138.17ZM2208.15 1131.86 2235.65 1132.18 2235.57 1139.05 2208.07 1138.73ZM2256.27 1132.42 2283.77 1132.74 2283.69 1139.61 2256.19 1139.29ZM2299.05 1122.6 2326.39 1136.67 2298.73 1150.1Z" /><text
       id="text80"
       transform="matrix(1 0 0 1 2008.67 1117)"
       font-size="64"
       font-weight="400"
       font-style="italic"
       font-family="Arial,Arial_MSFontService,sans-serif"
       fill="#212322">edge == 1 </text>
<text
       id="text82"
       transform="matrix(1 0 0 1 2307.19 1624)"
       font-size="64"
       font-weight="700"
       font-style="italic"
       font-family="Arial,Arial_MSFontService,sans-serif"
       fill="#212322">Next Feature to Feature</text>
<text
       id="text84"
       transform="matrix(1 0 0 1 3021.04 1624)"
       font-size="64"
       font-weight="700"
       font-style="italic"
       font-family="Arial,Arial_MSFontService,sans-serif"
       fill="#212322">-</text>
<text
       id="text86"
       transform="matrix(1 0 0 1 3042.24 1624)"
       font-size="64"
       font-weight="700"
       font-style="italic"
       font-family="Arial,Arial_MSFontService,sans-serif"
       fill="#212322">1</text>
<text
       id="text88"
       transform="matrix(1 0 0 1 2493.66 1701)"
       font-size="64"
       font-weight="400"
       font-style="italic"
       font-family="Arial,Arial_MSFontService,sans-serif"
       fill="#212322">for Interface</text>
<text
       id="text90"
       transform="matrix(1 0 0 1 2834.55 1701)"
       font-size="64"
       font-weight="400"
       font-style="italic"
       font-family="Arial,Arial_MSFontService,sans-serif"
       fill="#212322">-</text>
<text
       id="text92"
       transform="matrix(1 0 0 1 2855.74 1701)"
       font-size="64"
       font-weight="400"
       font-style="italic"
       font-family="Arial,Arial_MSFontService,sans-serif"
       fill="#212322">0</text>
<path
       id="path94"
       fill="#63666A"
       d="M2690.94 1546.47 2659.26 1309.52 2663.81 1308.91 2695.48 1545.86ZM2648.51 1315.58 2658.5 1286.5 2675.77 1311.94Z" /><text
       id="text96"
       transform="matrix(1 0 0 1 3080.93 1096)"
       font-size="64"
       font-weight="400"
       font-style="italic"
       font-family="Arial,Arial_MSFontService,sans-serif"
       fill="#212322">edge == 0</text>
<path
       id="path98"
       transform="matrix(1 0 0 -1 2990.5 1125.64)"
       fill="#63666A"
       d="M0.219926-3.43046 27.6636-1.67105 27.2237 5.18986-0.219926 3.43046ZM48.2463-0.351496 75.69 1.40791 75.2501 8.26883 47.8065 6.50942ZM96.2728 2.72747 123.716 4.48687 123.277 11.3478 95.8329 9.58838ZM144.299 5.80643 171.743 7.56583 171.303 14.4267 143.859 12.6673ZM192.326 8.88539 219.769 10.6448 219.329 17.5057 191.886 15.7463ZM240.352 11.9644 267.796 13.7238 267.356 20.5847 239.912 18.8253ZM288.378 15.0433 315.822 16.8027 315.382 23.6636 287.939 21.9042ZM336.405 18.1223 363.848 19.8817 363.409 26.7426 335.965 24.9832ZM384.431 21.2012 411.875 22.9606 411.435 29.8216 383.991 28.0622ZM412.357 12.6579 438.921 28.1391 410.598 40.1016Z" /><text
       id="text100"
       transform="matrix(1 0 0 1 3280.81 1634)"
       font-size="64"
       font-weight="700"
       font-style="italic"
       font-family="Arial,Arial_MSFontService,sans-serif"
       fill="#212322">Next Feature to Feature</text>
<text
       id="text102"
       transform="matrix(1 0 0 1 3994.67 1634)"
       font-size="64"
       font-weight="700"
       font-style="italic"
       font-family="Arial,Arial_MSFontService,sans-serif"
       fill="#212322">-</text>
<text
       id="text104"
       transform="matrix(1 0 0 1 4015.87 1634)"
       font-size="64"
       font-weight="700"
       font-style="italic"
       font-family="Arial,Arial_MSFontService,sans-serif"
       fill="#212322">1</text>
<text
       id="text106"
       transform="matrix(1 0 0 1 3480.19 1711)"
       font-size="64"
       font-weight="400"
       font-style="italic"
       font-family="Arial,Arial_MSFontService,sans-serif"
       fill="#212322">for Interface</text>
<text
       id="text108"
       transform="matrix(1 0 0 1 3821.08 1711)"
       font-size="55"
       font-weight="400"
       font-style="italic"
       font-family="Arial,Arial_MSFontService,sans-serif"
       fill="#212322">-</text>
<text
       id="text110"
       transform="matrix(1 0 0 1 3839.41 1711)"
       font-size="55"
       font-weight="400"
       font-style="italic"
       font-family="Arial,Arial_MSFontService,sans-serif"
       fill="#212322">1</text>
<path
       id="path112"
       transform="matrix(1 0 0 -1 3666.5 1556.2)"
       fill="#63666A"
       d="M2.19695-0.652044 89.9684 295.078 85.5745 296.382-2.19695 0.652044ZM99.6489 287.424 94.2918 317.699 73.2856 295.248Z" /><path
       id="path114"
       fill="#63666A"
       d="M1867.07 1025.81 1867.42 1018.62 1868.49 1011.28 1870.26 1003.97 1872.27 997.989 1878.79 1000.18 1876.82 1006.02 1876.91 1005.73 1875.21 1012.74 1875.27 1012.43 1874.25 1019.45 1874.28 1019.12 1873.93 1026.15ZM1881.7 978.819 1883.97 975.115 1888.98 968.018 1894.59 960.969 1898.61 956.437 1903.75 960.998 1899.8 965.462 1899.91 965.323 1894.42 972.222 1894.54 972.063 1889.65 978.99 1889.77 978.808 1887.55 982.418ZM1913.37 941.594 1914.93 940.127 1922.84 933.284 1931.3 926.497 1934.85 923.839 1938.97 929.343 1935.46 931.966 1935.55 931.895 1927.19 938.606 1927.29 938.525 1919.48 945.281 1919.58 945.188 1918.07 946.609ZM1951.82 911.768 1959.83 906.488 1970.37 899.942 1975.26 897.066 1978.75 902.994 1973.89 905.849 1973.96 905.805 1963.5 912.303 1963.58 912.254 1955.6 917.508ZM1993.34 886.825 2004.89 880.719 2017.33 874.457 2017.91 874.18 2020.88 880.379 2020.34 880.642 2020.39 880.613 2008.01 886.844 2008.07 886.812 1996.55 892.902ZM2036.62 865.351 2043.57 862.173 2057.34 856.155 2061.9 854.247 2064.55 860.591 2060.01 862.488 2060.06 862.466 2046.35 868.46 2046.4 868.437 2039.48 871.603ZM2081.04 846.419 2086.12 844.388 2101.11 838.643 2106.81 836.551 2109.18 843.005 2103.51 845.089 2103.55 845.072 2088.6 850.799 2088.65 850.78 2083.59 852.803ZM2126.26 829.558 2132.27 827.446 2152.4 820.792 2154.55 827.32 2134.45 833.964 2134.52 833.942 2128.55 836.044ZM2172.11 814.467 2198.42 806.467 2200.42 813.044 2174.11 821.045ZM2218.36 800.882 2234.13 796.472 2244.98 793.688 2246.69 800.347 2235.88 803.122 2235.95 803.103 2220.21 807.503ZM2264.95 788.558 2270.62 787.103 2291.76 782.131 2293.34 788.824 2272.23 793.788 2272.3 793.771 2266.66 795.217ZM2311.92 777.466 2338.81 771.695 2340.25 778.417 2313.36 784.188ZM2359.09 767.584 2386.08 762.324 2387.39 769.072 2360.4 774.332ZM2406.45 758.735 2426.94 755.133 2433.62 754.084 2434.69 760.876 2428.04 761.92 2428.1 761.91 2407.64 765.506ZM2453.99 750.883 2468.18 748.653 2481.26 746.839 2482.2 753.649 2469.16 755.459 2469.22 755.45 2455.06 757.674ZM2501.69 744.003 2510.12 742.833 2529.03 740.551 2529.85 747.376 2510.97 749.655 2511.03 749.647 2502.63 750.813ZM2549.51 738.08 2552.66 737.699 2576.92 735.21 2577.62 742.049 2553.39 744.535 2553.45 744.529 2550.33 744.905ZM2597.5 733.13 2624.9 730.813 2625.48 737.664 2598.08 739.98ZM2645.52 729.185 2672.96 727.365 2673.42 734.224 2645.98 736.045ZM2693.62 726.19 2721.08 724.875 2721.41 731.742 2693.94 733.057ZM2741.76 724.16 2769.25 723.361 2769.45 730.233 2741.96 731.032ZM2789.94 723.116 2815.78 722.863 2817.49 722.875 2817.45 729.749 2815.76 729.738 2815.82 729.738 2790.01 729.991ZM2838.12 723.017 2860.13 723.169 2865.66 723.283 2865.52 730.156 2860.01 730.043 2860.06 730.044 2838.07 729.892ZM2886.28 723.705 2904.38 724.076 2913.82 724.394 2913.59 731.265 2904.17 730.948 2904.22 730.949 2886.14 730.579ZM2934.43 725.09 2948.46 725.563 2961.96 726.194 2961.64 733.061 2948.16 732.432 2948.21 732.433 2934.2 731.961ZM2982.56 727.157 2992.28 727.611 3010.06 728.671 3009.65 735.533 2991.9 734.476 2991.94 734.478 2982.24 734.024ZM3030.65 729.897 3035.76 730.202 3058.13 731.82 3057.63 738.677 3035.28 737.06 3035.33 737.063 3030.24 736.76ZM3078.7 733.307 3078.8 733.315 3106.14 735.64 3105.56 742.49 3078.24 740.167 3078.28 740.17 3078.2 740.164ZM3126.73 737.46 3154.1 740.137 3153.43 746.98 3126.06 744.302ZM3174.65 742.296 3201.99 745.322 3201.23 752.155 3173.9 749.129ZM3222.5 747.831 3244.91 750.607 3249.83 751.283 3248.9 758.094 3243.99 757.421 3244.04 757.427 3221.66 754.654ZM3270.26 754.089 3284.49 756.043 3297.53 758.016 3296.5 764.813 3283.48 762.844 3283.53 762.851 3269.33 760.9ZM3317.92 761.1 3323.12 761.886 3345.11 765.531 3343.99 772.314 3322.02 768.673 3322.07 768.68 3316.89 767.898ZM3365.5 768.983 3392.56 773.88 3391.33 780.645 3364.27 775.748ZM3412.86 777.806 3432.45 781.666 3439.87 783.257 3438.43 789.979 3431.04 788.394 3431.09 788.406 3411.53 784.551ZM3460.04 787.579 3466.42 788.945 3486.91 793.718 3485.35 800.414 3464.89 795.648 3464.95 795.661 3458.6 794.301ZM3507.01 798.523 3514.75 800.443 3530.13 804.42 3533.71 805.389 3531.92 812.026 3528.35 811.062 3528.39 811.071 3513.05 807.103 3513.08 807.111 3505.36 805.196ZM3553.64 810.869 3559.7 812.577 3573.87 816.753 3580.09 818.669 3578.07 825.239 3571.87 823.33 3571.91 823.342 3557.77 819.178 3557.81 819.189 3551.77 817.487ZM3599.8 824.913 3600.96 825.287 3613.84 829.641 3625.89 833.912 3623.59 840.391 3611.57 836.129 3611.62 836.146 3598.78 831.808 3598.82 831.823 3597.69 831.457ZM3645.28 841.269 3649.75 843.025 3660.77 847.587 3670.76 851.959 3668 858.257 3658.04 853.898 3658.11 853.926 3647.15 849.389 3647.21 849.413 3642.77 847.669ZM3689.52 860.9 3690.83 861.548 3699.81 866.289 3708.27 871.071 3713.79 874.438 3710.21 880.308 3704.74 876.97 3704.83 877.027 3696.47 872.297 3696.56 872.346 3687.66 867.65 3687.74 867.692 3686.47 867.064ZM3731.16 886.32 3736.55 890.61 3742.19 895.601 3747.24 900.64 3751.56 905.593 3746.37 910.111 3742.13 905.247 3742.3 905.421 3737.41 900.539 3737.56 900.68 3732.06 895.818 3732.2 895.935 3726.88 891.701ZM3764.7 906.97 3761.07 937.5 3738.83 916.273Z" /><text
       id="text116"
       transform="matrix(0.998741 -0.050158 0.050158 0.998741 2571.92 793)"
       font-size="64"
       font-weight="400"
       font-style="italic"
       font-family="Arial,Arial_MSFontService,sans-serif"
       fill="#212322">edge == 0</text>
<text
       id="text118"
       transform="matrix(1 0 0 1 1933.46 420)"
       text-decoration="underline"
       font-size="64"
       font-weight="700"
       font-style="italic"
       font-family="Arial,Arial_MSFontService,sans-serif"
       fill="#212322">Interface</text>
<text
       id="text120"
       transform="matrix(1 0 0 1 2199.86 420)"
       text-decoration="underline"
       font-size="64"
       font-weight="700"
       font-style="italic"
       font-family="Arial,Arial_MSFontService,sans-serif"
       fill="#212322">-</text>
<text
       id="text122"
       transform="matrix(1 0 0 1 2221.06 420)"
       text-decoration="underline"
       font-size="64"
       font-weight="700"
       font-style="italic"
       font-family="Arial,Arial_MSFontService,sans-serif"
       fill="#212322">0</text>
<text
       id="text124"
       transform="matrix(1 0 0 1 1842.64 497)"
       font-size="64"
       font-weight="400"
       font-style="italic"
       font-family="Arial,Arial_MSFontService,sans-serif"
       fill="#212322">Enabled Features</text>
<text
       id="text126"
       transform="matrix(1 0 0 1 2828.07 412)"
       text-decoration="underline"
       font-size="64"
       font-weight="700"
       font-style="italic"
       font-family="Arial,Arial_MSFontService,sans-serif"
       fill="#212322">Interface</text>
<text
       id="text128"
       transform="matrix(1 0 0 1 3094.47 412)"
       text-decoration="underline"
       font-size="64"
       font-weight="700"
       font-style="italic"
       font-family="Arial,Arial_MSFontService,sans-serif"
       fill="#212322">-</text>
<text
       id="text130"
       transform="matrix(1 0 0 1 3115.67 412)"
       text-decoration="underline"
       font-size="64"
       font-weight="700"
       font-style="italic"
       font-family="Arial,Arial_MSFontService,sans-serif"
       fill="#212322">1</text>
<text
       id="text132"
       transform="matrix(1 0 0 1 2737.25 489)"
       font-size="64"
       font-weight="400"
       font-style="italic"
       font-family="Arial,Arial_MSFontService,sans-serif"
       fill="#212322">Enabled Features</text>
<path
       id="path134"
       transform="matrix(-1 0 0 1 1993.37 532.5)"
       fill="#63666A"
       d="M0.513174-0.254726 224.189 450.366 223.163 450.875-0.513174 0.254726ZM233.954 440.402 233.865 471.148 209.322 452.629Z" /><path
       id="path136"
       fill="#63666A"
       d="M2095.86 523.058 2640.92 971.389 2640.19 972.274 2095.14 523.943ZM2645.75 958.301 2658.26 986.389 2628.28 979.539Z" /><path
       id="path138"
       transform="matrix(-1 0 0 1 2834.66 536.5)"
       fill="#63666A"
       d="M0.307156-0.48362 857.122 543.695 856.508 544.663-0.307156 0.48362ZM860.318 530.115 876.16 556.465 845.574 553.329Z" /><path
       id="path140"
       fill="#63666A"
       d="M2990.87 529.062 3509.46 966.033 3508.73 966.91 2990.13 529.938ZM3514.45 953.003 3526.62 981.238 3496.73 974.033Z" /><path
       id="path142"
       fill="#63666A"
       d="M2381.7 431.962 3739.81 929.039 3739.42 930.115 2381.3 433.038ZM3740.03 915.088 3761.13 937.452 3730.58 940.913Z" /><text
       id="text144"
       transform="matrix(0.838284 -0.545233 0.545233 0.838284 1136.13 1461)"
       font-size="64"
       font-weight="400"
       font-style="italic"
       font-family="Arial,Arial_MSFontService,sans-serif"
       fill="#212322">edge == 2 </text>
<text
       id="text146"
       transform="matrix(0.98675 -0.162247 0.162247 0.98675 2069.25 1383)"
       font-size="64"
       font-weight="400"
       font-style="italic"
       font-family="Arial,Arial_MSFontService,sans-serif"
       fill="#212322">edge == 0 </text>
<text
       id="text148"
       transform="matrix(0.994324 -0.106397 0.106397 0.994324 2994.86 1316)"
       font-size="64"
       font-weight="400"
       font-style="italic"
       font-family="Arial,Arial_MSFontService,sans-serif"
       fill="#212322">edge == 0 </text>
</g></svg>
