<?xml version="1.0" encoding="UTF-8" standalone="no"?>
<!DOCTYPE svg PUBLIC "-//W3C//DTD SVG 1.1//EN"
 "http://www.w3.org/Graphics/SVG/1.1/DTD/svg11.dtd">
<!-- Generated by graphviz version 2.43.0 (0)
 -->
<!-- SPDX-License-Identifier: BSD-3-Clause -->
<!-- Copyright(C) 2023 Marvell International Ltd. -->
<!--

Generated with following command
dot -Tsvg dot.dot -o doc/guides/prog_guide/img/graph_inbuilt_node_flow.svg

cat dot.dot
digraph dpdk_inbuilt_nodes_flow {
    comment="input nodes"
    ethdev_rx [color="green"]
    kernel_rx [color="green"]

    ethdev_tx [color="magenta"]
    pkt_drop [color="cyan"]
    kernel_tx [color="blue"]
    pkt_cls [color="red"]
    ip4_lookup [label="ip4_lookup / ip4_lookup_fib"]

    ethdev_rx -> pkt_cls
    kernel_rx -> pkt_cls
    pkt_cls -> ip4_lookup  [ label="ipv4"]
    pkt_cls -> ip6_lookup  [ label="ipv6"]
    pkt_cls -> kernel_tx  [ label="exception pkts"  color="blue"]
    ip4_lookup -> ip4_rewrite
    ip4_lookup -> pkt_drop [color="cyan" style="dashed"]
    ip4_rewrite -> ethdev_tx [color="green"]
    ip4_rewrite->pkt_drop  [color="cyan" style="dashed"]
    ip6_lookup -> ip6_rewrite
    ip6_lookup -> pkt_drop [color="cyan" style="dashed"]
    ip6_rewrite -> ethdev_tx [color="green"]
    ip6_rewrite -> pkt_drop  [color="cyan" style="dashed"]
    ethdev_tx -> pkt_drop [color="cyan" style="dashed"]
    pkt_cls->pkt_drop   [color="cyan" style="dashed"]
    kernel_tx -> kernel_rx [color="red" style="dashed"]
    ip4_lookup -> ip4_local
    ip4_local -> pkt_drop [color="cyan" style="dashed"]
    ip4_local -> udp4_input [ label="udpv4"]
    udp4_input -> udp_user_node
    udp4_input -> pkt_drop [color="cyan" style="dashed"]

}

 -->
<!-- input nodes -->
<!-- Title: dpdk_inbuilt_nodes_flow Pages: 1 -->
<svg width="777pt" height="437pt"
 viewBox="0.00 0.00 776.95 437.00" xmlns="http://www.w3.org/2000/svg" xmlns:xlink="http://www.w3.org/1999/xlink">
<g id="graph0" class="graph" transform="scale(1 1) rotate(0) translate(4 433)">
<title>dpdk_inbuilt_nodes_flow</title>
<polygon fill="white" stroke="transparent" points="-4,4 -4,-433 772.95,-433 772.95,4 -4,4"/>
<!-- ethdev_rx -->
<g id="node1" class="node">
<title>ethdev_rx</title>
<ellipse fill="none" stroke="green" cx="317.95" cy="-411" rx="56.59" ry="18"/>
<text text-anchor="middle" x="317.95" y="-407.3" font-family="Times,serif" font-size="14.00">ethdev_rx</text>
</g>
<!-- pkt_cls -->
<g id="node6" class="node">
<title>pkt_cls</title>
<ellipse fill="none" stroke="red" cx="317.95" cy="-338" rx="42.79" ry="18"/>
<text text-anchor="middle" x="317.95" y="-334.3" font-family="Times,serif" font-size="14.00">pkt_cls</text>
</g>
<!-- ethdev_rx&#45;&gt;pkt_cls -->
<g id="edge1" class="edge">
<title>ethdev_rx&#45;&gt;pkt_cls</title>
<path fill="none" stroke="black" d="M317.95,-392.81C317.95,-384.79 317.95,-375.05 317.95,-366.07"/>
<polygon fill="black" stroke="black" points="321.45,-366.03 317.95,-356.03 314.45,-366.03 321.45,-366.03"/>
</g>
<!-- kernel_rx -->
<g id="node2" class="node">
<title>kernel_rx</title>
<ellipse fill="none" stroke="green" cx="142.95" cy="-178" rx="53.89" ry="18"/>
<text text-anchor="middle" x="142.95" y="-174.3" font-family="Times,serif" font-size="14.00">kernel_rx</text>
</g>
<!-- kernel_rx&#45;&gt;pkt_cls -->
<g id="edge2" class="edge">
<title>kernel_rx&#45;&gt;pkt_cls</title>
<path fill="none" stroke="black" d="M144.85,-196.26C147.86,-216.03 155.42,-248.32 173.95,-269 199.67,-297.7 240.08,-315.31 271.55,-325.4"/>
<polygon fill="black" stroke="black" points="270.84,-328.84 281.43,-328.41 272.89,-322.14 270.84,-328.84"/>
</g>
<!-- ethdev_tx -->
<g id="node3" class="node">
<title>ethdev_tx</title>
<ellipse fill="none" stroke="magenta" cx="442.95" cy="-91" rx="55.79" ry="18"/>
<text text-anchor="middle" x="442.95" y="-87.3" font-family="Times,serif" font-size="14.00">ethdev_tx</text>
</g>
<!-- pkt_drop -->
<g id="node4" class="node">
<title>pkt_drop</title>
<ellipse fill="none" stroke="cyan" cx="499.95" cy="-18" rx="51.99" ry="18"/>
<text text-anchor="middle" x="499.95" y="-14.3" font-family="Times,serif" font-size="14.00">pkt_drop</text>
</g>
<!-- ethdev_tx&#45;&gt;pkt_drop -->
<g id="edge14" class="edge">
<title>ethdev_tx&#45;&gt;pkt_drop</title>
<path fill="none" stroke="cyan" stroke-dasharray="5,2" d="M456.45,-73.17C463.55,-64.33 472.39,-53.33 480.23,-43.55"/>
<polygon fill="cyan" stroke="cyan" points="483,-45.69 486.53,-35.71 477.54,-41.31 483,-45.69"/>
</g>
<!-- kernel_tx -->
<g id="node5" class="node">
<title>kernel_tx</title>
<ellipse fill="none" stroke="blue" cx="53.95" cy="-251" rx="53.89" ry="18"/>
<text text-anchor="middle" x="53.95" y="-247.3" font-family="Times,serif" font-size="14.00">kernel_tx</text>
</g>
<!-- kernel_tx&#45;&gt;kernel_rx -->
<g id="edge16" class="edge">
<title>kernel_tx&#45;&gt;kernel_rx</title>
<path fill="none" stroke="red" stroke-dasharray="5,2" d="M73.7,-234.24C85.83,-224.57 101.55,-212.02 114.95,-201.33"/>
<polygon fill="red" stroke="red" points="117.31,-203.93 122.94,-194.96 112.94,-198.46 117.31,-203.93"/>
</g>
<!-- pkt_cls&#45;&gt;pkt_drop -->
<g id="edge15" class="edge">
<title>pkt_cls&#45;&gt;pkt_drop</title>
<path fill="none" stroke="cyan" stroke-dasharray="5,2" d="M359.57,-333.53C471.21,-323.65 768.95,-293.43 768.95,-252 768.95,-252 768.95,-252 768.95,-90 768.95,-47.3 640.63,-29.71 561.24,-22.92"/>
<polygon fill="cyan" stroke="cyan" points="561.11,-19.4 550.86,-22.07 560.54,-26.37 561.11,-19.4"/>
</g>
<!-- pkt_cls&#45;&gt;kernel_tx -->
<g id="edge5" class="edge">
<title>pkt_cls&#45;&gt;kernel_tx</title>
<path fill="none" stroke="blue" d="M275.65,-334.79C200.84,-330.45 51.54,-319.65 35.95,-302 29.84,-295.09 31.24,-285.97 35.22,-277.4"/>
<polygon fill="blue" stroke="blue" points="38.4,-278.88 40.31,-268.46 32.32,-275.42 38.4,-278.88"/>
<text text-anchor="middle" x="88.45" y="-290.8" font-family="Times,serif" font-size="14.00">exception pkts</text>
</g>
<!-- ip4_lookup -->
<g id="node7" class="node">
<title>ip4_lookup</title>
<ellipse fill="none" stroke="black" cx="317.95" cy="-251" rx="135.38" ry="18"/>
<text text-anchor="middle" x="317.95" y="-247.3" font-family="Times,serif" font-size="14.00">ip4_lookup / ip4_lookup_fib</text>
</g>
<!-- pkt_cls&#45;&gt;ip4_lookup -->
<g id="edge3" class="edge">
<title>pkt_cls&#45;&gt;ip4_lookup</title>
<path fill="none" stroke="black" d="M317.95,-319.8C317.95,-308.16 317.95,-292.55 317.95,-279.24"/>
<polygon fill="black" stroke="black" points="321.45,-279.18 317.95,-269.18 314.45,-279.18 321.45,-279.18"/>
<text text-anchor="middle" x="333.45" y="-290.8" font-family="Times,serif" font-size="14.00">ipv4</text>
</g>
<!-- ip6_lookup -->
<g id="node8" class="node">
<title>ip6_lookup</title>
<ellipse fill="none" stroke="black" cx="605.95" cy="-251" rx="135.38" ry="18"/>
<text text-anchor="middle" x="605.95" y="-247.3" font-family="Times,serif" font-size="14.00">ip6_lookup</text>
</g>
<!-- pkt_cls&#45;&gt;ip6_lookup -->
<g id="edge4" class="edge">
<title>pkt_cls&#45;&gt;ip6_lookup</title>
<path fill="none" stroke="black" d="M352.11,-326.92C399.09,-313.05 484.45,-287.86 543.12,-270.54"/>
<polygon fill="black" stroke="black" points="544.42,-273.81 553.02,-267.62 542.44,-267.09 544.42,-273.81"/>
<text text-anchor="middle" x="495.45" y="-290.8" font-family="Times,serif" font-size="14.00">ipv6</text>
</g>
<!-- ip4_lookup&#45;&gt;pkt_drop -->
<g id="edge7" class="edge">
<title>ip4_lookup&#45;&gt;pkt_drop</title>
<path fill="none" stroke="cyan" stroke-dasharray="5,2" d="M322.89,-232.88C335.16,-190.88 366.75,-85.24 377.95,-73 396.35,-52.86 423.64,-39.83 447.75,-31.62"/>
<polygon fill="cyan" stroke="cyan" points="449.04,-34.88 457.5,-28.49 446.91,-28.21 449.04,-34.88"/>
</g>
<!-- ip4_rewrite -->
<g id="node9" class="node">
<title>ip4_rewrite</title>
<ellipse fill="none" stroke="black" cx="442.95" cy="-178" rx="63.89" ry="18"/>
<text text-anchor="middle" x="442.95" y="-174.3" font-family="Times,serif" font-size="14.00">ip4_rewrite</text>
</g>
<!-- ip4_lookup&#45;&gt;ip4_rewrite -->
<g id="edge6" class="edge">
<title>ip4_lookup&#45;&gt;ip4_rewrite</title>
<path fill="none" stroke="black" d="M347.25,-233.35C365.11,-223.21 388.07,-210.17 407.02,-199.41"/>
<polygon fill="black" stroke="black" points="408.99,-202.31 415.96,-194.33 405.53,-196.23 408.99,-202.31"/>
</g>
<!-- ip4_local -->
<g id="node11" class="node">
<title>ip4_local</title>
<ellipse fill="none" stroke="black" cx="271.95" cy="-178" rx="51.19" ry="18"/>
<text text-anchor="middle" x="271.95" y="-174.3" font-family="Times,serif" font-size="14.00">ip4_local</text>
</g>
<!-- ip4_lookup&#45;&gt;ip4_local -->
<g id="edge17" class="edge">
<title>ip4_lookup&#45;&gt;ip4_local</title>
<path fill="none" stroke="black" d="M306.81,-232.81C301.33,-224.35 294.61,-213.98 288.54,-204.61"/>
<polygon fill="black" stroke="black" points="291.35,-202.52 282.98,-196.03 285.48,-206.32 291.35,-202.52"/>
</g>
<!-- ip6_lookup&#45;&gt;pkt_drop -->
<g id="edge11" class="edge">
<title>ip6_lookup&#45;&gt;pkt_drop</title>
<path fill="none" stroke="cyan" stroke-dasharray="5,2" d="M630.47,-233.24C642.05,-223.81 654.68,-210.93 660.95,-196 667.14,-181.25 667.55,-174.57 660.95,-160 635.59,-104.08 575.88,-61.6 536.74,-38.51"/>
<polygon fill="cyan" stroke="cyan" points="538.16,-35.29 527.75,-33.34 534.67,-41.36 538.16,-35.29"/>
</g>
<!-- ip6_rewrite -->
<g id="node10" class="node">
<title>ip6_rewrite</title>
<ellipse fill="none" stroke="black" cx="587.95" cy="-178" rx="63.89" ry="18"/>
<text text-anchor="middle" x="587.95" y="-174.3" font-family="Times,serif" font-size="14.00">ip6_rewrite</text>
</g>
<!-- ip6_lookup&#45;&gt;ip6_rewrite -->
<g id="edge10" class="edge">
<title>ip6_lookup&#45;&gt;ip6_rewrite</title>
<path fill="none" stroke="black" d="M601.59,-232.81C599.53,-224.7 597.03,-214.84 594.73,-205.78"/>
<polygon fill="black" stroke="black" points="598.11,-204.86 592.26,-196.03 591.33,-206.58 598.11,-204.86"/>
</g>
<!-- ip4_rewrite&#45;&gt;ethdev_tx -->
<g id="edge8" class="edge">
<title>ip4_rewrite&#45;&gt;ethdev_tx</title>
<path fill="none" stroke="green" d="M442.95,-159.8C442.95,-148.16 442.95,-132.55 442.95,-119.24"/>
<polygon fill="green" stroke="green" points="446.45,-119.18 442.95,-109.18 439.45,-119.18 446.45,-119.18"/>
</g>
<!-- ip4_rewrite&#45;&gt;pkt_drop -->
<g id="edge9" class="edge">
<title>ip4_rewrite&#45;&gt;pkt_drop</title>
<path fill="none" stroke="cyan" stroke-dasharray="5,2" d="M465.32,-161.1C480.53,-148.83 499.37,-130.37 507.95,-109 516.04,-88.82 513.02,-64.12 508.56,-45.7"/>
<polygon fill="cyan" stroke="cyan" points="511.9,-44.66 505.91,-35.93 505.15,-46.49 511.9,-44.66"/>
</g>
<!-- ip6_rewrite&#45;&gt;ethdev_tx -->
<g id="edge12" class="edge">
<title>ip6_rewrite&#45;&gt;ethdev_tx</title>
<path fill="none" stroke="green" d="M561.35,-161.41C537.8,-147.6 503.27,-127.36 477.57,-112.3"/>
<polygon fill="green" stroke="green" points="479.28,-109.24 468.88,-107.21 475.74,-115.28 479.28,-109.24"/>
</g>
<!-- ip6_rewrite&#45;&gt;pkt_drop -->
<g id="edge13" class="edge">
<title>ip6_rewrite&#45;&gt;pkt_drop</title>
<path fill="none" stroke="cyan" stroke-dasharray="5,2" d="M580.15,-159.86C568.93,-135.7 547.15,-90.48 524.95,-54 522.97,-50.75 520.78,-47.4 518.55,-44.13"/>
<polygon fill="cyan" stroke="cyan" points="521.28,-41.92 512.67,-35.75 515.55,-45.94 521.28,-41.92"/>
</g>
<!-- ip4_local&#45;&gt;pkt_drop -->
<g id="edge18" class="edge">
<title>ip4_local&#45;&gt;pkt_drop</title>
<path fill="none" stroke="cyan" stroke-dasharray="5,2" d="M286.02,-160.51C290.47,-154.86 295.21,-148.35 298.95,-142 320.57,-105.29 304.02,-81.03 336.95,-54 352.83,-40.96 401.22,-31.62 441.19,-25.89"/>
<polygon fill="cyan" stroke="cyan" points="441.72,-29.35 451.14,-24.51 440.75,-22.41 441.72,-29.35"/>
</g>
<!-- udp4_input -->
<g id="node12" class="node">
<title>udp4_input</title>
<ellipse fill="none" stroke="black" cx="221.95" cy="-91" rx="63.09" ry="18"/>
<text text-anchor="middle" x="221.95" y="-87.3" font-family="Times,serif" font-size="14.00">udp4_input</text>
</g>
<!-- ip4_local&#45;&gt;udp4_input -->
<g id="edge19" class="edge">
<title>ip4_local&#45;&gt;udp4_input</title>
<path fill="none" stroke="black" d="M262.07,-160.21C254.99,-148.18 245.33,-131.75 237.26,-118.03"/>
<polygon fill="black" stroke="black" points="240.06,-115.89 231.97,-109.05 234.03,-119.44 240.06,-115.89"/>
<text text-anchor="middle" x="272.45" y="-130.8" font-family="Times,serif" font-size="14.00">udpv4</text>
</g>
<!-- udp4_input&#45;&gt;pkt_drop -->
<g id="edge21" class="edge">
<title>udp4_input&#45;&gt;pkt_drop</title>
<path fill="none" stroke="cyan" stroke-dasharray="5,2" d="M249.75,-74.82C264.08,-67.56 282.05,-59.32 298.95,-54 345.51,-39.35 400.19,-30.33 440.76,-25.12"/>
<polygon fill="cyan" stroke="cyan" points="441.26,-28.59 450.75,-23.88 440.4,-21.64 441.26,-28.59"/>
</g>
<!-- udp_user_node -->
<g id="node13" class="node">
<title>udp_user_node</title>
<ellipse fill="none" stroke="black" cx="221.95" cy="-18" rx="79.89" ry="18"/>
<text text-anchor="middle" x="221.95" y="-14.3" font-family="Times,serif" font-size="14.00">udp_user_node</text>
</g>
<!-- udp4_input&#45;&gt;udp_user_node -->
<g id="edge20" class="edge">
<title>udp4_input&#45;&gt;udp_user_node</title>
<path fill="none" stroke="black" d="M221.95,-72.81C221.95,-64.79 221.95,-55.05 221.95,-46.07"/>
<polygon fill="black" stroke="black" points="225.45,-46.03 221.95,-36.03 218.45,-46.03 225.45,-46.03"/>
</g>
</g>
</svg>
