<?xml version="1.0" encoding="UTF-8" standalone="no"?>
<!DOCTYPE svg PUBLIC "-//W3C//DTD SVG 1.1//EN"
 "http://www.w3.org/Graphics/SVG/1.1/DTD/svg11.dtd">
<!-- Generated by graphviz version 2.43.0 (0)
 -->
<!-- SPDX-License-Identifier: BSD-3-Clause -->
<!-- Copyright(C) 2023 Marvell. -->
<!--

Generated with following command
dot -Tsvg dot.dot -o doc/guides/tools/img/graph-usecase-l2fwd.svg

cat dot.dot
digraph dpdk_app_graph_l2fwd_nodes_flow {
    ingress_port [shape=rect]
    ethdev_rx
    ethdev_tx
    pkt_drop
    egress_port  [shape=rect]

    ingress_port -> ethdev_rx [label="ingress packet"]

    ethdev_rx -> ethdev_tx
    ethdev_tx -> egress_port [label="egress packet"]
    ethdev_tx -> pkt_drop [color="red" style="dashed"]
}
 -->

<!-- Title: dpdk_app_graph_l2fwd_nodes_flow Pages: 1 -->
<svg width="253pt" height="291pt"
 viewBox="0.00 0.00 253.00 291.00" xmlns="http://www.w3.org/2000/svg" xmlns:xlink="http://www.w3.org/1999/xlink">
<g id="graph0" class="graph" transform="scale(1 1) rotate(0) translate(4 287)">
<title>dpdk_app_graph_l2fwd_nodes_flow</title>
<polygon fill="white" stroke="transparent" points="-4,4 -4,-287 249,-287 249,4 -4,4"/>
<!-- ingress_port -->
<g id="node1" class="node">
<title>ingress_port</title>
<polygon fill="none" stroke="black" points="165,-283 59,-283 59,-247 165,-247 165,-283"/>
<text text-anchor="middle" x="112" y="-261.3" font-family="Times,serif" font-size="14.00">ingress_port</text>
</g>
<!-- ethdev_rx -->
<g id="node2" class="node">
<title>ethdev_rx</title>
<ellipse fill="none" stroke="black" cx="112" cy="-178" rx="56.59" ry="18"/>
<text text-anchor="middle" x="112" y="-174.3" font-family="Times,serif" font-size="14.00">ethdev_rx</text>
</g>
<!-- ingress_port&#45;&gt;ethdev_rx -->
<g id="edge1" class="edge">
<title>ingress_port&#45;&gt;ethdev_rx</title>
<path fill="none" stroke="black" d="M112,-246.8C112,-235.16 112,-219.55 112,-206.24"/>
<polygon fill="black" stroke="black" points="115.5,-206.18 112,-196.18 108.5,-206.18 115.5,-206.18"/>
<text text-anchor="middle" x="164.5" y="-217.8" font-family="Times,serif" font-size="14.00">ingress packet</text>
</g>
<!-- ethdev_tx -->
<g id="node3" class="node">
<title>ethdev_tx</title>
<ellipse fill="none" stroke="black" cx="112" cy="-105" rx="55.79" ry="18"/>
<text text-anchor="middle" x="112" y="-101.3" font-family="Times,serif" font-size="14.00">ethdev_tx</text>
</g>
<!-- ethdev_rx&#45;&gt;ethdev_tx -->
<g id="edge2" class="edge">
<title>ethdev_rx&#45;&gt;ethdev_tx</title>
<path fill="none" stroke="black" d="M112,-159.81C112,-151.79 112,-142.05 112,-133.07"/>
<polygon fill="black" stroke="black" points="115.5,-133.03 112,-123.03 108.5,-133.03 115.5,-133.03"/>
</g>
<!-- pkt_drop -->
<g id="node4" class="node">
<title>pkt_drop</title>
<ellipse fill="none" stroke="black" cx="52" cy="-18" rx="51.99" ry="18"/>
<text text-anchor="middle" x="52" y="-14.3" font-family="Times,serif" font-size="14.00">pkt_drop</text>
</g>
<!-- ethdev_tx&#45;&gt;pkt_drop -->
<g id="edge4" class="edge">
<title>ethdev_tx&#45;&gt;pkt_drop</title>
<path fill="none" stroke="red" stroke-dasharray="5,2" d="M100.14,-87.21C91.43,-74.87 79.45,-57.89 69.62,-43.97"/>
<polygon fill="red" stroke="red" points="72.45,-41.91 63.82,-35.76 66.73,-45.95 72.45,-41.91"/>
</g>
<!-- egress_port -->
<g id="node5" class="node">
<title>egress_port</title>
<polygon fill="none" stroke="black" points="222.5,-36 121.5,-36 121.5,0 222.5,0 222.5,-36"/>
<text text-anchor="middle" x="172" y="-14.3" font-family="Times,serif" font-size="14.00">egress_port</text>
</g>
<!-- ethdev_tx&#45;&gt;egress_port -->
<g id="edge3" class="edge">
<title>ethdev_tx&#45;&gt;egress_port</title>
<path fill="none" stroke="black" d="M123.85,-87.21C132.5,-74.95 144.39,-58.11 154.18,-44.24"/>
<polygon fill="black" stroke="black" points="157.05,-46.24 159.96,-36.05 151.33,-42.2 157.05,-46.24"/>
<text text-anchor="middle" x="195" y="-57.8" font-family="Times,serif" font-size="14.00">egress packet</text>
</g>
</g>
</svg>
